<?xml version="1.0" standalone="no"?>
<!DOCTYPE svg PUBLIC "-//W3C//DTD SVG 20010904//EN"
 "http://www.w3.org/TR/2001/REC-SVG-20010904/DTD/svg10.dtd">
<svg version="1.0" xmlns="http://www.w3.org/2000/svg"
 width="77.000000pt" height="77.000000pt" viewBox="0 0 77.000000 77.000000"
 preserveAspectRatio="xMidYMid meet">
<metadata>
Created by potrace 1.14, written by Peter Selinger 2001-2017
</metadata>
<g transform="translate(0.000000,77.000000) scale(0.100000,-0.100000)"
fill="#000000" stroke="none">
<path d="M352 710 c-7 -20 -22 -30 -66 -43 -55 -18 -57 -18 -83 2 -33 27 -44
26 -73 -4 -23 -25 -23 -26 -7 -60 16 -34 16 -37 -10 -90 -21 -42 -33 -55 -50
-56 -13 -1 -28 -2 -34 -3 -13 -1 -26 -33 -23 -53 1 -7 2 -19 3 -27 0 -8 16
-17 35 -20 31 -6 37 -12 52 -59 21 -60 20 -74 -7 -103 -19 -21 -19 -21 3 -50
12 -16 23 -30 24 -32 1 -2 20 6 43 17 49 25 72 26 117 5 25 -12 34 -22 33 -38
-5 -53 -2 -56 51 -56 48 0 51 2 67 37 16 34 23 38 59 41 30 2 50 -4 76 -21 33
-23 37 -24 62 -8 36 22 41 46 17 87 -12 19 -21 44 -21 54 0 34 42 70 90 78 39
7 45 11 54 40 11 38 2 51 -46 66 -22 8 -34 20 -41 41 -5 17 -11 37 -14 45 -11
29 -11 40 0 53 38 40 38 43 9 77 l-29 32 -37 -17 c-32 -15 -41 -16 -64 -5 -15
8 -29 14 -32 15 -25 5 -49 30 -52 52 -3 26 -6 28 -50 29 -42 0 -48 -3 -56 -26z
m113 -232 c69 -78 50 -175 -42 -207 -51 -18 -87 -9 -130 34 -35 35 -43 78 -24
128 31 81 141 105 196 45z"/>
</g>
</svg>
